<svg width="16" height="14" viewBox="0 0 16 14" fill="none" xmlns="http://www.w3.org/2000/svg">
<path d="M13.7591 4.93832C12.4023 4.93832 11.8476 3.98906 12.5223 2.82473C12.9121 2.14986 12.6797 1.28959 11.9975 0.903952L10.7007 0.169756C10.1085 -0.178802 9.34384 0.0288497 8.99152 0.614723L8.90906 0.755629C8.2344 1.91996 7.12495 1.91996 6.44279 0.755629L6.36033 0.614723C6.023 0.0288497 5.25838 -0.178802 4.66618 0.169756L3.36933 0.903952C2.68717 1.28959 2.45479 2.15728 2.84459 2.83214C3.52675 3.98906 2.97203 4.93832 1.61521 4.93832C0.835596 4.93832 0.190918 5.56869 0.190918 6.34738V7.65262C0.190918 8.42389 0.828099 9.06168 1.61521 9.06168C2.97203 9.06168 3.52675 10.0109 2.84459 11.1753C2.45479 11.8501 2.68717 12.7104 3.36933 13.096L4.66618 13.8302C5.25838 14.1788 6.023 13.9712 6.37533 13.3853L6.45778 13.2444C7.13245 12.08 8.24189 12.08 8.92405 13.2444L9.00651 13.3853C9.35883 13.9712 10.1235 14.1788 10.7157 13.8302L12.0125 13.096C12.6947 12.7104 12.927 11.8427 12.5372 11.1753C11.8551 10.0109 12.4098 9.06168 13.7666 9.06168C14.5462 9.06168 15.1909 8.43131 15.1909 7.65262V6.34738C15.1834 5.57611 14.5462 4.93832 13.7591 4.93832ZM7.68717 9.41024C6.34534 9.41024 5.25089 8.32749 5.25089 7C5.25089 5.67251 6.34534 4.58976 7.68717 4.58976C9.029 4.58976 10.1235 5.67251 10.1235 7C10.1235 8.32749 9.029 9.41024 7.68717 9.41024Z" fill="black"/>
</svg>
