<svg width="500" height="500" viewBox="0 0 500 500" fill="none" xmlns="http://www.w3.org/2000/svg">
    <path
        d="M250 286.05C314.744 286.05 367.23 225.022 367.23 149.74C367.23 74.4581 314.744 13.43 250 13.43C185.256 13.43 132.77 74.4581 132.77 149.74C132.77 225.022 185.256 286.05 250 286.05Z"
        fill="black" />
    <path
        d="M494 438.48C494 491.19 384.76 486.46 250 486.46C115.24 486.46 6 491.19 6 438.48C6 395.66 36.6 328.09 154.12 304.27C159.34 303.21 164.13 307.21 164.13 312.53V312.64C164.13 361.32 192.33 402.1 230.21 412.8L233.65 355.58L226.86 335.21C225.51 331.18 228.37 326.95 232.45 326.95H267.56C271.64 326.95 274.5 331.18 273.15 335.21L266.36 355.58L269.8 412.8C307.68 402.1 335.88 361.31 335.88 312.64V311.74C335.84 306.51 340.56 302.51 345.71 303.47C470.05 326.53 494 395.17 494 438.49V438.48Z"
        fill="black" />
</svg>